<?xml version="1.0" encoding="UTF-8" standalone="no"?>
<!-- Created with Inkscape (http://www.inkscape.org/) -->

<svg
   width="1200"
   height="630"
   viewBox="0 0 317.49999 166.6875"
   version="1.1"
   id="svg5"
   xml:space="preserve"
   inkscape:version="1.2.2 (b0a8486541, 2022-12-01)"
   sodipodi:docname="social.svg"
   inkscape:export-filename="social.png"
   inkscape:export-xdpi="96"
   inkscape:export-ydpi="96"
   xmlns:inkscape="http://www.inkscape.org/namespaces/inkscape"
   xmlns:sodipodi="http://sodipodi.sourceforge.net/DTD/sodipodi-0.dtd"
   xmlns="http://www.w3.org/2000/svg"
   xmlns:svg="http://www.w3.org/2000/svg"><sodipodi:namedview
     id="namedview7"
     pagecolor="#ffffff"
     bordercolor="#ffffff"
     borderopacity="1"
     inkscape:showpageshadow="0"
     inkscape:pageopacity="0"
     inkscape:pagecheckerboard="0"
     inkscape:deskcolor="#505050"
     inkscape:document-units="mm"
     showgrid="false"
     showguides="false"
     inkscape:zoom="0.66395607"
     inkscape:cx="430.75139"
     inkscape:cy="231.94306"
     inkscape:window-width="1920"
     inkscape:window-height="1161"
     inkscape:window-x="0"
     inkscape:window-y="0"
     inkscape:window-maximized="1"
     inkscape:current-layer="layer1" /><defs
     id="defs2"><rect
       x="155.84361"
       y="56.670403"
       width="722.54765"
       height="97.599033"
       id="rect1644" /><rect
       x="206.2173"
       y="182.60463"
       width="911.44899"
       height="264.46189"
       id="rect296" /></defs><g
     inkscape:label="Layer 1"
     inkscape:groupmode="layer"
     id="layer1"><rect
       style="fill:#ffffff;fill-opacity:1;stroke:none;stroke-width:0;stroke-dasharray:none"
       id="rect5113"
       width="317.5"
       height="166.6875"
       x="0"
       y="-2.8421709e-14"
       ry="0" /><text
       xml:space="preserve"
       style="font-style:normal;font-weight:normal;font-size:10.5833px;line-height:1.25;font-family:sans-serif;fill:#000000;fill-opacity:1;stroke:none;stroke-width:0.264583"
       x="245.73572"
       y="62.058681"
       id="text1632"><tspan
         sodipodi:role="line"
         id="tspan1630"
         style="stroke-width:0.264583"
         x="245.73572"
         y="62.058681" /><tspan
         sodipodi:role="line"
         style="stroke-width:0.264583"
         x="245.73572"
         y="75.287804"
         id="tspan1636" /></text><rect
       style="fill:#069494;fill-opacity:1;stroke:none;stroke-width:0;stroke-dasharray:none"
       id="rect1814"
       width="96.372658"
       height="166.70905"
       x="-1.6243041e-07"
       y="-1.6899689e-07" /><g
       id="g5056"
       transform="translate(0,7.0815025)"><g
         id="g1760"
         transform="translate(37.164264,-38.141809)"><text
           xml:space="preserve"
           transform="matrix(0.26458333,0,0,0.26458333,18.326054,24.573572)"
           id="text294"
           style="font-style:normal;font-weight:normal;font-size:106.667px;line-height:1.25;font-family:sans-serif;white-space:pre;shape-inside:url(#rect296);display:inline;fill:#069494;fill-opacity:1;stroke:none"><tspan
             x="206.2168"
             y="279.65912"
             id="tspan5190"><tspan
               style="font-weight:bold;font-family:'Josefin Sans';-inkscape-font-specification:'Josefin Sans Bold'"
               id="tspan5188">Pass the SALT</tspan></tspan></text><text
           xml:space="preserve"
           transform="matrix(0.26458333,0,0,0.26458333,33.403709,91.63027)"
           id="text1642"
           style="font-style:normal;font-weight:normal;font-size:64px;line-height:1.25;font-family:sans-serif;white-space:pre;shape-inside:url(#rect1644);display:inline;fill:#000000;fill-opacity:1;stroke:none"><tspan
             x="155.84375"
             y="114.90193"
             id="tspan5194"><tspan
               style="font-weight:600;font-family:'Josefin Sans';-inkscape-font-specification:'Josefin Sans Semi-Bold'"
               id="tspan5192">Open-source &amp; Security</tspan></tspan></text></g><g
         id="g5044"
         transform="translate(195.52608,138.31102)"><g
           id="g5038"><rect
             style="fill:#069494;fill-opacity:1;stroke:none;stroke-width:0;stroke-dasharray:none"
             id="rect4962"
             width="58.563282"
             height="14.675372"
             x="-17.378729"
             y="-38.6194"
             ry="7.3376861" /></g><text
           xml:space="preserve"
           style="font-style:normal;font-weight:normal;font-size:10.5833px;line-height:1.25;font-family:sans-serif;fill:#ffffff;fill-opacity:1;stroke:none;stroke-width:0.264583"
           x="-12.787935"
           y="-27.238894"
           id="text5035"><tspan
             sodipodi:role="line"
             id="tspan5033"
             style="font-style:normal;font-variant:normal;font-weight:normal;font-stretch:normal;font-family:'Josefin Sans';-inkscape-font-specification:'Josefin Sans';fill:#ffffff;stroke-width:0.264583"
             x="-12.787935"
             y="-27.238894">read more</tspan></text></g></g></g><g
     inkscape:groupmode="layer"
     id="layer2"
     inkscape:label="Layer logo"><g
       id="g2403"
       transform="matrix(0.36529844,0,0,0.36529844,-1.2398964,23.306603)"><path
         id="path418"
         style="color:#000000;font-style:normal;font-variant:normal;font-weight:normal;font-stretch:normal;font-size:medium;line-height:normal;font-family:sans-serif;font-variant-ligatures:normal;font-variant-position:normal;font-variant-caps:normal;font-variant-numeric:normal;font-variant-alternates:normal;font-feature-settings:normal;text-indent:0;text-align:start;text-decoration:none;text-decoration-line:none;text-decoration-style:solid;text-decoration-color:#000000;letter-spacing:normal;word-spacing:normal;text-transform:none;writing-mode:lr-tb;direction:ltr;text-orientation:mixed;dominant-baseline:auto;baseline-shift:baseline;text-anchor:start;white-space:normal;shape-padding:0;clip-rule:nonzero;display:inline;overflow:visible;visibility:visible;opacity:1;isolation:auto;mix-blend-mode:normal;color-interpolation:sRGB;color-interpolation-filters:linearRGB;solid-color:#000000;solid-opacity:1;vector-effect:none;fill:#ffffff;fill-opacity:1;fill-rule:nonzero;stroke:none;stroke-width:20;stroke-linecap:round;stroke-linejoin:round;stroke-miterlimit:4;stroke-dasharray:none;stroke-dashoffset:0;stroke-opacity:1;marker:none;paint-order:stroke fill markers;color-rendering:auto;image-rendering:auto;shape-rendering:auto;text-rendering:auto;enable-background:accumulate"
         d="m 136.64844,11.5 c -47.73673,0 -76.457798,14.063197 -88.832034,30.427734 -6.187118,8.18227 -8.333383,16.900533 -6.90625,24.916016 1.413585,7.939381 6.349425,15.25676 14.712891,20.6875 a 1.50015,1.50015 0 0 1 0.927734,1.439453 1.5002301,1.5002301 0 0 1 -0.0059,0.101563 1.5002301,1.5002301 0 0 1 -0.0078,0.08984 v 0.002 L 41.322266,259.74023 a 1.50015,1.50015 0 0 1 -0.01758,0.13672 c -2.042642,11.15681 2.819752,21.00211 9.230468,28.86719 6.410718,7.86508 14.275966,13.58323 17.921875,16.33984 -0.05262,-0.0398 0.321544,0.17927 0.865235,0.37891 0.543689,0.19964 1.291689,0.43543 2.197265,0.69141 1.811153,0.51195 4.257407,1.1081 7.125,1.74804 5.735188,1.27988 13.162213,2.73584 20.744141,4.10352 7.58193,1.36768 15.32277,2.64731 21.68945,3.57617 6.36672,0.92886 11.48276,1.49606 13.32813,1.47266 1.93323,-0.0246 6.6623,-0.53409 12.52539,-1.32813 5.86309,-0.79404 12.93755,-1.86776 19.88477,-3.00976 6.9472,-1.14201 13.76879,-2.35368 19.12109,-3.41797 2.67615,-0.53215 4.98709,-1.02648 6.74805,-1.45508 1.76096,-0.4286 3.06776,-0.86119 3.30859,-0.98242 4.51887,-2.27463 13.58165,-7.0606 20.99024,-14.16797 7.40854,-7.10737 13.08597,-16.34128 11.36132,-27.86328 a 1.50015,1.50015 0 0 1 -0.0117,-0.0937 l -15,-175.000002 a 1.50015,1.50015 0 0 1 0.17579,-0.886719 1.50015,1.50015 0 0 1 0.72656,-1.154297 c 8.40755,-5.449425 13.58175,-12.862487 15.27734,-20.898437 1.69559,-8.03595 -0.0628,-16.743551 -5.82422,-24.908203 C 212.16663,25.559317 184.38516,11.5 136.64844,11.5 Z m 0,8.5 c 46.07284,0 70.93733,13.810481 80.0957,26.789062 4.57919,6.489292 5.64352,12.612192 4.45313,18.253907 -1.19041,5.641714 -4.80139,11.123331 -11.58399,15.519531 a 10.001,10.001 0 0 0 -4.64062,7.205078 10.001,10.001 0 0 0 -0.0215,0.126953 10.001,10.001 0 0 0 -0.002,0.02148 10.001,10.001 0 0 0 -0.084,2.544922 l 15,174.999997 a 10.001,10.001 0 0 0 0.004,0.0527 c 0.79319,8.7153 -3.16628,15.11993 -9.32422,21.03516 -6.15793,5.91522 -13.94734,10.1483 -18.69922,12.83398 1.54213,-0.8716 0.24871,-0.14139 -1.14648,0.2461 -1.39519,0.38747 -3.41488,0.88234 -5.79688,1.41406 -4.76398,1.06344 -11.01728,2.29064 -17.5332,3.44141 -13.03185,2.3015 -27.92785,4.24655 -32.5957,4.27734 -7.9594,0.0525 -59.139923,-10.42674 -60.035159,-10.65039 0.02661,0.007 -3.020011,-1.25911 -6.130859,-3.52735 -3.110848,-2.26824 -6.676127,-5.47704 -9.798828,-9.17969 -6.245403,-7.40528 -10.274315,-16.27224 -9.085938,-24.33985 a 10.001,10.001 0 0 0 0.06641,-0.56836 L 64.875,91.365234 A 10.001,10.001 0 0 0 64.355469,85.125 10.001,10.001 0 0 0 64.197266,84.746094 10.001,10.001 0 0 0 64.154297,84.65625 10.001,10.001 0 0 0 59.238281,79.722656 C 53.211371,75.511245 50.198079,70.524816 49.277344,65.353516 48.297147,59.84825 49.599942,53.661424 54.595703,47.054688 64.587225,33.841213 90.575588,20 136.64844,20 Z" /><path
         id="path414"
         style="color:#000000;font-style:normal;font-variant:normal;font-weight:normal;font-stretch:normal;font-size:medium;line-height:normal;font-family:sans-serif;font-variant-ligatures:normal;font-variant-position:normal;font-variant-caps:normal;font-variant-numeric:normal;font-variant-alternates:normal;font-feature-settings:normal;text-indent:0;text-align:start;text-decoration:none;text-decoration-line:none;text-decoration-style:solid;text-decoration-color:#000000;letter-spacing:normal;word-spacing:normal;text-transform:none;writing-mode:lr-tb;direction:ltr;text-orientation:mixed;dominant-baseline:auto;baseline-shift:baseline;text-anchor:start;white-space:normal;shape-padding:0;clip-rule:nonzero;display:inline;overflow:visible;visibility:visible;opacity:1;isolation:auto;mix-blend-mode:normal;color-interpolation:sRGB;color-interpolation-filters:linearRGB;solid-color:#000000;solid-opacity:1;vector-effect:none;fill:#ffffff;fill-opacity:1;fill-rule:nonzero;stroke:none;stroke-width:20;stroke-linecap:round;stroke-linejoin:round;stroke-miterlimit:4;stroke-dasharray:none;stroke-dashoffset:0;stroke-opacity:1;marker:none;paint-order:stroke fill markers;color-rendering:auto;image-rendering:auto;shape-rendering:auto;text-rendering:auto;enable-background:accumulate"
         d="M 136.64844,0 C 86.660578,0 54.240483,14.364448 38.642578,34.992188 c -7.798952,10.313868 -11.0865,22.45553 -9.054687,33.867187 1.693807,9.513254 7.034121,18.18184 15.003906,24.800781 L 29.884766,258.54297 c -2.182262,15.86117 5.20405,29.75943 13.634765,39.75586 4.250211,5.03953 8.875594,9.21589 13.304688,12.44531 4.429093,3.22942 8.270586,5.5734 13.066406,6.77148 5.644214,1.41008 46.471355,11.36648 65.015625,11.24415 8.58399,-0.0566 22.4325,-2.19432 35.94141,-4.58008 6.75445,-1.19288 13.2194,-2.45805 18.41211,-3.61719 2.59634,-0.57957 4.86577,-1.12939 6.79101,-1.66406 1.92524,-0.53468 2.98507,-0.60484 5.63672,-2.10352 4.12428,-2.33098 13.99473,-7.44772 22.71289,-15.82226 8.71816,-8.37456 16.84932,-21.20083 15.38672,-37.27149 l 0.006,0.0527 -14.5625,-169.888676 c 8.02584,-6.588148 13.53024,-15.191309 15.53515,-24.693359 2.37908,-11.275207 -0.3188,-23.482747 -7.67968,-33.914063 C 218.36417,14.395183 186.63629,0 136.64844,0 Z m 0,8.5 c 48.32397,0 77.13488,14.146292 89.49218,31.658203 6.17869,8.755956 8.18249,18.376839 6.3086,27.257813 -1.83904,8.7158 -7.39675,16.667579 -16.0918,22.46289 l 14.96289,174.574214 0.002,0.0254 c 1.8576,12.67139 -4.47694,22.91249 -12.25977,30.3789 -7.80222,7.48502 -17.13411,12.37586 -21.71875,14.6836 -0.8971,0.45156 -2.11987,0.77154 -3.94922,1.21679 -1.82935,0.44525 -4.16923,0.94712 -6.87109,1.48438 -5.40375,1.07452 -12.24894,2.28755 -19.22071,3.43359 -6.97175,1.14604 -14.06718,2.22419 -19.96875,3.02344 -5.90155,0.79925 -10.53075,1.32547 -12.89062,1.35547 -2.44773,0.0311 -7.38646,-0.56838 -13.79883,-1.50391 -6.41237,-0.93552 -14.17587,-2.21883 -21.787108,-3.5918 -7.611231,-1.37295 -15.067034,-2.83453 -20.867188,-4.1289 -2.900076,-0.64719 -5.383528,-1.25099 -7.287109,-1.78906 -0.95179,-0.26904 -1.757882,-0.52201 -2.416016,-0.76368 -0.658132,-0.24166 -1.134643,-0.41773 -1.638671,-0.79882 -3.576583,-2.70422 -11.720262,-8.59631 -18.439454,-16.83985 -6.694097,-8.21274 -12.060877,-18.92635 -9.875,-31.16406 L 53.476562,89.703125 C 44.832341,83.918975 39.496405,76.015011 37.957031,67.369141 36.372156,58.4677 38.814279,48.857479 45.421875,40.119141 58.637068,22.642462 88.324459,8.5 136.64844,8.5 Z" /><path
         style="color:#000000;font-style:normal;font-variant:normal;font-weight:normal;font-stretch:normal;font-size:medium;line-height:normal;font-family:sans-serif;font-variant-ligatures:normal;font-variant-position:normal;font-variant-caps:normal;font-variant-numeric:normal;font-variant-alternates:normal;font-feature-settings:normal;text-indent:0;text-align:start;text-decoration:none;text-decoration-line:none;text-decoration-style:solid;text-decoration-color:#000000;letter-spacing:normal;word-spacing:normal;text-transform:none;writing-mode:lr-tb;direction:ltr;text-orientation:mixed;dominant-baseline:auto;baseline-shift:baseline;text-anchor:start;white-space:normal;shape-padding:0;clip-rule:nonzero;display:inline;overflow:visible;visibility:visible;opacity:1;isolation:auto;mix-blend-mode:normal;color-interpolation:sRGB;color-interpolation-filters:linearRGB;solid-color:#000000;solid-opacity:1;vector-effect:none;fill:#ffffff;fill-opacity:1;fill-rule:nonzero;stroke:none;stroke-width:12.6919;stroke-linecap:round;stroke-linejoin:round;stroke-miterlimit:4;stroke-dasharray:none;stroke-dashoffset:0;stroke-opacity:1;marker:none;paint-order:stroke fill markers;color-rendering:auto;image-rendering:auto;shape-rendering:auto;text-rendering:auto;enable-background:accumulate"
         d="m 92.240161,120.06641 a 6.3465752,6.3465752 0 0 0 -6.128906,5.90625 L 73.521411,277.13672 a 6.3465752,6.3465752 0 1 0 12.648438,1.05273 L 98.759693,127.02734 a 6.3465752,6.3465752 0 0 0 -6.519532,-6.96093 z"
         id="path4567"
         inkscape:connector-curvature="0" /><path
         style="color:#000000;font-style:normal;font-variant:normal;font-weight:normal;font-stretch:normal;font-size:medium;line-height:normal;font-family:sans-serif;font-variant-ligatures:normal;font-variant-position:normal;font-variant-caps:normal;font-variant-numeric:normal;font-variant-alternates:normal;font-feature-settings:normal;text-indent:0;text-align:start;text-decoration:none;text-decoration-line:none;text-decoration-style:solid;text-decoration-color:#000000;letter-spacing:normal;word-spacing:normal;text-transform:none;writing-mode:lr-tb;direction:ltr;text-orientation:mixed;dominant-baseline:auto;baseline-shift:baseline;text-anchor:start;white-space:normal;shape-padding:0;clip-rule:nonzero;display:inline;overflow:visible;visibility:visible;opacity:1;isolation:auto;mix-blend-mode:normal;color-interpolation:sRGB;color-interpolation-filters:linearRGB;solid-color:#000000;solid-opacity:1;vector-effect:none;fill:#ffffff;fill-opacity:1;fill-rule:nonzero;stroke:none;stroke-width:13.1466;stroke-linecap:round;stroke-linejoin:round;stroke-miterlimit:4;stroke-dasharray:none;stroke-dashoffset:0;stroke-opacity:1;marker:none;paint-order:stroke fill markers;color-rendering:auto;image-rendering:auto;shape-rendering:auto;text-rendering:auto;enable-background:accumulate"
         d="m 134.7304,125.74219 a 6.57394,6.57394 0 0 0 -6.47461,6.66601 v 157.0586 a 6.57394,6.57394 0 1 0 13.14648,0 V 132.4082 a 6.57394,6.57394 0 0 0 -6.67187,-6.66601 z"
         id="path4569"
         inkscape:connector-curvature="0" /><path
         style="color:#000000;font-style:normal;font-variant:normal;font-weight:normal;font-stretch:normal;font-size:medium;line-height:normal;font-family:sans-serif;font-variant-ligatures:normal;font-variant-position:normal;font-variant-caps:normal;font-variant-numeric:normal;font-variant-alternates:normal;font-feature-settings:normal;text-indent:0;text-align:start;text-decoration:none;text-decoration-line:none;text-decoration-style:solid;text-decoration-color:#000000;letter-spacing:normal;word-spacing:normal;text-transform:none;writing-mode:lr-tb;direction:ltr;text-orientation:mixed;dominant-baseline:auto;baseline-shift:baseline;text-anchor:start;white-space:normal;shape-padding:0;clip-rule:nonzero;display:inline;overflow:visible;visibility:visible;opacity:1;isolation:auto;mix-blend-mode:normal;color-interpolation:sRGB;color-interpolation-filters:linearRGB;solid-color:#000000;solid-opacity:1;vector-effect:none;fill:#ffffff;fill-opacity:1;fill-rule:nonzero;stroke:none;stroke-width:12.6991;stroke-linecap:round;stroke-linejoin:round;stroke-miterlimit:4;stroke-dasharray:none;stroke-dashoffset:0;stroke-opacity:1;marker:none;paint-order:stroke fill markers;color-rendering:auto;image-rendering:auto;shape-rendering:auto;text-rendering:auto;enable-background:accumulate"
         d="m 179.55462,120.0625 a 6.3502028,6.3502028 0 0 0 -6.47071,6.83789 l 9.56446,151.33984 a 6.3502028,6.3502028 0 1 0 12.67383,-0.80078 l -9.56446,-151.33984 a 6.3502028,6.3502028 0 0 0 -6.20312,-6.03711 z"
         id="path4571"
         inkscape:connector-curvature="0" /><path
         style="color:#000000;font-style:normal;font-variant:normal;font-weight:normal;font-stretch:normal;font-size:medium;line-height:normal;font-family:sans-serif;font-variant-ligatures:normal;font-variant-position:normal;font-variant-caps:normal;font-variant-numeric:normal;font-variant-alternates:normal;font-feature-settings:normal;text-indent:0;text-align:start;text-decoration:none;text-decoration-line:none;text-decoration-style:solid;text-decoration-color:#000000;letter-spacing:normal;word-spacing:normal;text-transform:none;writing-mode:lr-tb;direction:ltr;text-orientation:mixed;dominant-baseline:auto;baseline-shift:baseline;text-anchor:start;white-space:normal;shape-padding:0;clip-rule:nonzero;display:inline;overflow:visible;visibility:visible;opacity:1;isolation:auto;mix-blend-mode:normal;color-interpolation:sRGB;color-interpolation-filters:linearRGB;solid-color:#000000;solid-opacity:1;vector-effect:none;fill:#ffffff;fill-opacity:1;fill-rule:nonzero;stroke:none;stroke-width:20;stroke-linecap:round;stroke-linejoin:round;stroke-miterlimit:4;stroke-dasharray:none;stroke-dashoffset:0;stroke-opacity:1;marker:none;paint-order:stroke fill markers;color-rendering:auto;image-rendering:auto;shape-rendering:auto;text-rendering:auto;enable-background:accumulate"
         d="m 114.82805,31.607422 a 10.001,10.001 0 1 0 0,20 10.001,10.001 0 1 0 0,-20 z"
         id="path4577"
         inkscape:connector-curvature="0" /><path
         style="color:#000000;font-style:normal;font-variant:normal;font-weight:normal;font-stretch:normal;font-size:medium;line-height:normal;font-family:sans-serif;font-variant-ligatures:normal;font-variant-position:normal;font-variant-caps:normal;font-variant-numeric:normal;font-variant-alternates:normal;font-feature-settings:normal;text-indent:0;text-align:start;text-decoration:none;text-decoration-line:none;text-decoration-style:solid;text-decoration-color:#000000;letter-spacing:normal;word-spacing:normal;text-transform:none;writing-mode:lr-tb;direction:ltr;text-orientation:mixed;dominant-baseline:auto;baseline-shift:baseline;text-anchor:start;white-space:normal;shape-padding:0;clip-rule:nonzero;display:inline;overflow:visible;visibility:visible;opacity:1;isolation:auto;mix-blend-mode:normal;color-interpolation:sRGB;color-interpolation-filters:linearRGB;solid-color:#000000;solid-opacity:1;vector-effect:none;fill:#ffffff;fill-opacity:1;fill-rule:nonzero;stroke:none;stroke-width:20;stroke-linecap:round;stroke-linejoin:round;stroke-miterlimit:4;stroke-dasharray:none;stroke-dashoffset:0;stroke-opacity:1;marker:none;paint-order:stroke fill markers;color-rendering:auto;image-rendering:auto;shape-rendering:auto;text-rendering:auto;enable-background:accumulate"
         d="m 154.82805,31.607422 a 10.001,10.001 0 1 0 0,20 10.001,10.001 0 1 0 0,-20 z"
         id="path4579"
         inkscape:connector-curvature="0" /><path
         style="color:#000000;font-style:normal;font-variant:normal;font-weight:normal;font-stretch:normal;font-size:medium;line-height:normal;font-family:sans-serif;font-variant-ligatures:normal;font-variant-position:normal;font-variant-caps:normal;font-variant-numeric:normal;font-variant-alternates:normal;font-feature-settings:normal;text-indent:0;text-align:start;text-decoration:none;text-decoration-line:none;text-decoration-style:solid;text-decoration-color:#000000;letter-spacing:normal;word-spacing:normal;text-transform:none;writing-mode:lr-tb;direction:ltr;text-orientation:mixed;dominant-baseline:auto;baseline-shift:baseline;text-anchor:start;white-space:normal;shape-padding:0;clip-rule:nonzero;display:inline;overflow:visible;visibility:visible;opacity:1;isolation:auto;mix-blend-mode:normal;color-interpolation:sRGB;color-interpolation-filters:linearRGB;solid-color:#000000;solid-opacity:1;vector-effect:none;fill:#ffffff;fill-opacity:1;fill-rule:nonzero;stroke:none;stroke-width:12;stroke-linecap:round;stroke-linejoin:round;stroke-miterlimit:4;stroke-dasharray:none;stroke-dashoffset:0;stroke-opacity:1;marker:none;paint-order:stroke fill markers;color-rendering:auto;image-rendering:auto;shape-rendering:auto;text-rendering:auto;enable-background:accumulate"
         d="m 79.441333,86.037109 a 6.0006,6.0006 0 0 0 -2.125,11.699219 C 116.94088,111.2946 155.15116,111.16769 191.23821,98.291016 a 6.0006,6.0006 0 1 0 -4.0332,-11.300782 C 153.59236,98.983988 118.59387,99.177441 81.201099,86.382812 a 6.0006,6.0006 0 0 0 -1.759766,-0.345703 z"
         id="path4575-3"
         inkscape:connector-curvature="0" /></g></g></svg>
